<svg xmlns="http://www.w3.org/2000/svg" viewBox="0 0 128 128">
<defs>
<linearGradient id="shell" x1="0" y1="0" x2="0" y2="1"><stop offset="0" stop-color="#a8e2ff"/><stop offset="1" stop-color="#3f95ee"/></linearGradient>
<linearGradient id="screen" x1="0" y1="0" x2="1" y2="1"><stop offset="0" stop-color="#2c3468"/><stop offset="1" stop-color="#0f1328"/></linearGradient>
<linearGradient id="base" x1="0" y1="0" x2="0" y2="1"><stop offset="0" stop-color="#ffcb5c"/><stop offset="1" stop-color="#ff8a3d"/></linearGradient>
<filter id="glow" x="-1" y="-1" width="3" height="3"><feGaussianBlur stdDeviation="2.5"/></filter>
</defs>
<ellipse cx="64" cy="121" rx="38" ry="5" fill="#1b2340" opacity=".15"/>
<rect x="30" y="97" width="68" height="21" rx="9" fill="url(#base)"/>
<rect x="37" y="100" width="54" height="5" rx="2.5" fill="#fff" opacity=".4"/>
<rect x="55" y="88" width="18" height="11" rx="3" fill="#5c6f94"/>
<rect x="3" y="36" width="9" height="36" rx="4.5" fill="#9b7bff" filter="url(#glow)"/>
<rect x="116" y="36" width="9" height="36" rx="4.5" fill="#9b7bff" filter="url(#glow)"/>
<rect x="5" y="39" width="5" height="30" rx="2.5" fill="#9b7bff"/>
<rect x="118" y="39" width="5" height="30" rx="2.5" fill="#9b7bff"/>
<rect x="10" y="10" width="108" height="84" rx="20" fill="url(#shell)"/>
<rect x="24" y="14" width="44" height="5" rx="2.5" fill="#fff" opacity=".55"/>
<rect x="21" y="23" width="86" height="62" rx="11" fill="url(#screen)"/>
<path d="M27 29 H48 L33 80 H27 Z" fill="#fff" opacity=".05"/>
<g filter="url(#glow)" opacity=".55"><path d="M38 49 Q46 56 54 49 M74 49 Q82 56 90 49" stroke="#fff" stroke-width="4.5" stroke-linecap="round" stroke-linejoin="round" fill="none"/><ellipse cx="64" cy="68" rx="7.5" ry="9" fill="#ff6f91" stroke="#fff" stroke-width="3.5"/></g><path d="M38 49 Q46 56 54 49 M74 49 Q82 56 90 49" stroke="#fff" stroke-width="4.5" stroke-linecap="round" stroke-linejoin="round" fill="none"/><ellipse cx="64" cy="68" rx="7.5" ry="9" fill="#ff6f91" stroke="#fff" stroke-width="3.5"/>
<path d="M36 55 q3 5 0 7.5 q-3 -2.5 0 -7.5 z" fill="#6ec3ff"/></svg>
